<svg width="512" height="512" viewBox="0 0 512 512" fill="none" xmlns="http://www.w3.org/2000/svg">
<g clip-path="url(#clip0_227_19)">
<rect x="-51" y="-304" width="1138" height="914" fill="#E5E5E5"/>
<g filter="url(#filter0_d_227_19)">
<path d="M442.973 127.303L434.607 128.627L442.959 127.271C442.12 123.558 440.696 122.824 440.098 122.094C437.577 120.103 436.806 120.08 434.965 119.174C423.576 114.309 387.503 102.089 352.536 84.6197C330.428 73.5566 308.493 60.6346 291.599 50.3876C283.134 45.2823 275.929 40.8072 270.502 37.5517C267.763 35.9194 265.51 34.5955 263.624 33.5844C262 32.8136 261.37 32.2378 259.62 31.6756C258.446 31.2176 257.285 31 256.192 31C255.018 31 253.857 31.2176 252.765 31.6756C251.019 32.2423 250.398 32.8136 248.775 33.5844C236.32 40.3719 198.728 65.1958 159.875 84.6197C139.332 94.8802 118.189 103.418 102.098 109.625C94.0365 112.731 87.2944 115.238 82.3931 117.183C79.922 118.135 77.9543 118.942 76.3447 119.668C75.5376 120.035 74.8258 120.371 73.9507 120.888C73.5245 121.164 73.053 121.45 72.3184 122.107C71.6973 122.833 70.2464 123.581 69.4439 127.308C67.7572 137.654 67 148.192 67 158.896C67.1134 232.271 102.982 311.64 143.63 373.339C164.001 404.166 185.615 430.513 204.976 449.438C214.697 458.878 223.806 466.509 232.157 471.973C240.577 477.309 248.04 480.878 256.084 481H256.197H256.347C272.057 480.333 288.035 468.2 307.822 449.484C365.758 392.699 444.999 269.02 445.416 159.078C445.412 148.314 444.614 137.7 442.973 127.303ZM354.989 364.058C335.284 393.955 314.292 419.523 295.992 437.328C278.083 455.31 261.184 464.727 256.342 464.038V464.088H256.079V464.038C254.052 464.188 248.335 462.347 241.402 457.722C216.533 441.749 176.203 396.54 143.263 340.766C110.11 284.943 83.8757 218.197 83.9528 158.896C83.9528 150.468 84.4833 142.207 85.5624 134.132C96.9157 129.498 132.998 116.993 167.456 99.7634C190.254 88.3512 212.525 75.2251 229.605 64.9011C238.129 59.7232 245.365 55.2526 250.634 52.1105C252.887 50.7413 254.787 49.6259 256.21 48.8324C267.641 55.1937 305.972 80.2806 344.951 99.7679C366.266 110.432 387.893 119.174 404.175 125.462C412.331 128.591 419.155 131.13 423.834 132.962C424.959 133.388 425.961 133.801 426.813 134.136C427.915 142.279 428.418 150.595 428.418 159.082C428.572 226.866 394.454 304.29 354.989 364.058ZM336.069 112.785C297.303 93.4248 259.783 67.821 256.288 67.3586V67.3268C256.265 67.3268 256.22 67.3268 256.22 67.3268C256.21 67.3268 256.152 67.3268 256.152 67.3268V67.3586C252.633 67.821 215.123 93.4248 176.37 112.785C140.207 130.867 102.547 142.588 102.27 144.242C93.9867 196.003 113.578 256.152 141.562 308.96L337.207 113.347C336.826 113.166 336.45 112.994 336.069 112.785ZM396.158 138.344L173.283 361.228C207.102 410.355 242.735 444.678 256.102 444.678C256.138 444.678 256.17 444.678 256.215 444.678C256.251 444.678 256.283 444.678 256.319 444.678C286.28 444.678 430.273 269.713 410.151 144.242C410.051 143.635 404.714 141.59 396.158 138.344Z" fill="black"/>
</g>
</g>
<defs>
<filter id="filter0_d_227_19" x="64" y="30" width="390.416" height="462" filterUnits="userSpaceOnUse" color-interpolation-filters="sRGB">
<feFlood flood-opacity="0" result="BackgroundImageFix"/>
<feColorMatrix in="SourceAlpha" type="matrix" values="0 0 0 0 0 0 0 0 0 0 0 0 0 0 0 0 0 0 127 0" result="hardAlpha"/>
<feOffset dx="3" dy="5"/>
<feGaussianBlur stdDeviation="3"/>
<feComposite in2="hardAlpha" operator="out"/>
<feColorMatrix type="matrix" values="0 0 0 0 0 0 0 0 0 0 0 0 0 0 0 0 0 0 0.5 0"/>
<feBlend mode="normal" in2="BackgroundImageFix" result="effect1_dropShadow_227_19"/>
<feBlend mode="normal" in="SourceGraphic" in2="effect1_dropShadow_227_19" result="shape"/>
</filter>
<clipPath id="clip0_227_19">
<rect width="512" height="512" rx="20" fill="white"/>
</clipPath>
</defs>
</svg>
