<svg xmlns="http://www.w3.org/2000/svg" viewBox="">
    <g fill="#111111cc">
        <path d="M82.922,21.242l-1.845,0.292l1.842-0.299c-0.185-0.819-0.499-0.981-0.631-1.142c-0.556-0.439-0.726-0.444-1.132-0.644c-2.512-1.073-10.468-3.768-18.18-7.621c-4.876-2.44-9.714-5.29-13.44-7.55c-1.867-1.126-3.456-2.113-4.653-2.831c-0.604-0.36-1.101-0.652-1.517-0.875c-0.358-0.17-0.497-0.297-0.883-0.421c-0.259-0.101-0.515-0.149-0.756-0.149c-0.259,0-0.515,0.048-0.756,0.149c-0.385,0.125-0.522,0.251-0.88,0.421c-2.747,1.497-11.038,6.972-19.607,11.256c-4.531,2.263-9.194,4.146-12.743,5.515c-1.778,0.685-3.265,1.238-4.346,1.667c-0.545,0.21-0.979,0.388-1.334,0.548c-0.178,0.081-0.335,0.155-0.528,0.269c-0.094,0.061-0.198,0.124-0.36,0.269c-0.137,0.16-0.457,0.325-0.634,1.147C0.167,23.525,0,25.849,0,28.21c0.025,16.183,7.936,33.688,16.901,47.296c4.493,6.799,9.26,12.61,13.53,16.784c2.144,2.082,4.153,3.765,5.995,4.97c1.857,1.177,3.503,1.964,5.277,1.991h0.025h0.033c3.465-0.147,6.989-2.823,11.353-6.951c12.778-12.524,30.255-39.802,30.347-64.05C83.46,25.876,83.284,23.535,82.922,21.242zM63.517,73.459c-4.346,6.594-8.976,12.233-13.012,16.16c-3.95,3.966-7.677,6.043-8.745,5.891v0.011h-0.058V95.51c-0.447,0.033-1.708-0.373-3.237-1.393C32.98,90.594,24.085,80.623,16.82,68.322C9.508,56.01,3.722,41.289,3.739,28.21c0-1.859,0.117-3.681,0.355-5.462c2.504-1.022,10.462-3.78,18.062-7.58c5.028-2.517,9.94-5.412,13.707-7.689c1.88-1.142,3.476-2.128,4.638-2.821c0.497-0.302,0.916-0.548,1.23-0.723c2.521,1.403,10.975,6.936,19.572,11.234c4.701,2.352,9.471,4.28,13.062,5.667c1.799,0.69,3.304,1.25,4.336,1.654c0.248,0.094,0.469,0.185,0.657,0.259c0.243,1.796,0.354,3.63,0.354,5.502C79.746,43.201,72.221,60.277,63.517,73.459zM59.344,18.04c-8.55-4.27-16.825-9.917-17.596-10.019V8.014c-0.005,0-0.015,0-0.015,0c-0.002,0-0.015,0-0.015,0v0.007c-0.776,0.102-9.049,5.749-17.596,10.019c-7.976,3.988-16.282,6.573-16.343,6.938c-1.827,11.416,2.494,24.682,8.666,36.329l43.15-43.143C59.511,18.124,59.428,18.086,59.344,18.04zM72.597,23.677L23.441,72.835C30.9,83.67,38.759,91.24,41.707,91.24c0.008,0,0.015,0,0.025,0c0.008,0,0.015,0,0.023,0c6.608,0,38.366-38.589,33.928-66.262C75.661,24.844,74.484,24.393,72.597,23.677z"/>
    </g>
</svg>